# xmcd CD database file
#
# Track frame offsets:
#	225
#	12481
#	24194
#	34083
#	52586
#	63101
#	74886
#	81103
#	90938
#	107081
#	115540
#	128460
#	139023
#	150198
#	167687
#
# Disc length: 2393 seconds
#
# Revision: 2
# Processed by: cddbd v1.4PL0 Copyright (c) Steve Scherf et al.
# Submitted via: CDex 1.40Release
#
DISCID=a709560f
DTITLE=Wabi Ryvola - Master Serie
DYEAR=1998
DGENRE=Folk
TTITLE0=Vracim se vracim
TTITLE1=Stara stezka
TTITLE2=Blacky Joe
TTITLE3=Tereza (Osamely mesto)
TTITLE4=Zpoved (Jsem stara, rezem zasvinena kotva)
TTITLE5=Proklata fordka
TTITLE6=Vozralej vlak
TTITLE7=Pikovicky pacifik
TTITLE8=Letokruhy
TTITLE9=Smutna Bedla jedla
TTITLE10=Fajnova zeme
TTITLE11=Osado, osado
TTITLE12=Delirium kredenc
TTITLE13=Odjizdim
TTITLE14=Taborovy ohen
EXTD=YEAR: 1998 ID3G: 80
EXTT0=
EXTT1=
EXTT2=
EXTT3=
EXTT4=
EXTT5=
EXTT6=
EXTT7=
EXTT8=
EXTT9=
EXTT10=
EXTT11=
EXTT12=
EXTT13=
EXTT14=
PLAYORDER=
